# xmcd
#
# Track frame offsets:
#	150
#	11947
#	25371
#	37759
#	48859
#	63011
#	78884
#	94981
#	110747
#	125418
#	135405
#	150677
#	160499
#	174601
#	185925
#	199734
#	214167
#
# Disc length: 3073 seconds
#
# Revision: 0
# Processed by: cddbd v1.4PL0 Copyright (c) Steve Scherf et al.
# Submitted via: dBpowerAMP V4.0
#
DISCID=e90bff11
DTITLE=Various Artist - Classic Country Hits CD 6
DYEAR=1900
DGENRE=Country
TTITLE0=Bobbie Gentry and Glen Campbell - All I Have To Do Is Dream
TTITLE1=Dolly Parton - Here You Come Again
TTITLE2=Johnny Cash - I Walk The Line
TTITLE3=The Oak Ridge Boys - Loves Me Like A Rock
TTITLE4=Loretta Lynn - She's Got You
TTITLE5=Johnny Cash and Marty Robbins - Song Of The Patriot
TTITLE6=Shelby Lynne - The Very First Lasting Love
TTITLE7=Billy Gilman - There's A Hero
TTITLE8=Charley Pride - Burgers And Fries
TTITLE9=Ned Miller - From A Jack To A King
TTITLE10=Joe Diffie - Home
TTITLE11=Tom T. Hall - I Love
TTITLE12=John Conlee - Lady Lay Down
TTITLE13=Marty Robbins - Singing The Blues
TTITLE14=Jimmy Dean - Big Bad John
TTITLE15=The Bellamy Brothers - If I Said You Had A Beautiful Body Would You Hold It Against Me
TTITLE16=Ronnie Milsap - It Was Almost Like A Song
EXTD=
EXTT0=
EXTT1=
EXTT2=
EXTT3=
EXTT4=
EXTT5=
EXTT6=
EXTT7=
EXTT8=
EXTT9=
EXTT10=
EXTT11=
EXTT12=
EXTT13=
EXTT14=
EXTT15=
EXTT16=
PLAYORDER=
